<svg xmlns="http://www.w3.org/2000/svg" width="512" height="512" viewBox="0 0 512 512"><g><path d="M200,88h32a8,8,0,0,0,0-16H200a8,8,0,0,0,0,16Z"/><path d="M200,112h32a8,8,0,0,0,0-16H200a8,8,0,0,0,0,16Z"/><path d="M200,136h32a8,8,0,0,0,0-16H200a8,8,0,0,0,0,16Z"/><path d="M420.51,401.44,344,238.22V56a24,24,0,0,0,0-48H168a24,24,0,0,0,0,48V238.22L91.49,401.44A72,72,0,0,0,156.68,504H355.32a72,72,0,0,0,65.19-102.56ZM160,32a8.011,8.011,0,0,1,8-8H344a8,8,0,0,1,0,16H168A8.011,8.011,0,0,1,160,32ZM328,56V203.7a71.946,71.946,0,0,1-16.37-3.36A87.878,87.878,0,0,0,282.66,196a87.807,87.807,0,0,0-28.96,4.34A72.524,72.524,0,0,1,229.33,204a72.524,72.524,0,0,1-24.37-3.66A85.781,85.781,0,0,0,184,196.27V56Zm74.58,406.04A55.721,55.721,0,0,1,355.32,488H156.68a56,56,0,0,1-50.7-79.77L183.24,243.4A8.032,8.032,0,0,0,184,240V212.3a71.946,71.946,0,0,1,16.37,3.36A87.758,87.758,0,0,0,229.33,220a87.758,87.758,0,0,0,28.96-4.34A72.524,72.524,0,0,1,282.66,212a72.524,72.524,0,0,1,24.37,3.66A85.878,85.878,0,0,0,328,219.73V240a8.032,8.032,0,0,0,.76,3.4l77.26,164.83A55.726,55.726,0,0,1,402.58,462.04Z"/><path d="M336,456H240a8,8,0,0,0,0,16h96a8,8,0,0,0,0-16Z"/><path d="M368,456h-8a8,8,0,0,0,0,16h8a8,8,0,0,0,0-16Z"/></g></svg>
