<svg xmlns="http://www.w3.org/2000/svg" xmlns:xlink="http://www.w3.org/1999/xlink" version="1.1" x="0px" y="0px" viewBox="0 0 80 100" enable-background="new 0 0 80 80" xml:space="preserve"><g><g><path fill="none" stroke="#000000" stroke-width="2" stroke-linecap="round" stroke-linejoin="round" stroke-miterlimit="10" d="    M34.3290405,42.5c5.6647949,0,5.6647949,2.166626,11.3295898,2.166626c5.6687012,0,5.6687012-2.166626,11.3373413-2.166626    c0.4115601,0,0.7858276,0.0142822,1.1419678,0.0354004c-1.1380005-6.7802734-5.9855957-12.3059082-12.3947144-14.4064941    v-7.9265137H34.2568359v7.9377441c-7.052124,2.3005371-12.2033081,8.7607422-12.6119385,16.4746094    c0.4163818,0.0302734,0.8555298,0.0518799,1.3510132,0.0518799C28.6624756,44.666626,28.6624756,42.5,34.3290405,42.5z"/><path fill="none" stroke="#000000" stroke-width="2" stroke-linecap="round" stroke-linejoin="round" stroke-miterlimit="10" d="    M56.9959717,42.5c-5.6686401,0-5.6686401,2.166626-11.3373413,2.166626c-5.6647949,0-5.6647949-2.166626-11.3295898-2.166626    c-5.6665649,0-5.6665649,2.166626-11.3331299,2.166626c-0.4954834,0-0.9346313-0.0216064-1.3510132-0.0518799    c-0.017334,0.3271484-0.039917,0.6530762-0.039917,0.9846191C21.6049805,55.7633057,29.8416138,64,40.0056152,64    c10.1528931,0,18.3894043-8.2366943,18.3894043-18.4006348c0-1.0441895-0.0897827-2.0671387-0.2570801-3.0639648    C57.7817993,42.5142822,57.4075317,42.5,56.9959717,42.5z"/><polygon fill="none" stroke="#000000" stroke-width="2" stroke-linecap="round" stroke-linejoin="round" stroke-miterlimit="10" points="    48.3633423,20.2023926 48.3633423,16 31.6324463,16 31.6324463,20.2023926 34.2568359,20.2023926 45.7432251,20.2023926   "/></g><line fill="none" stroke="#000000" stroke-width="2" stroke-linecap="round" stroke-linejoin="round" stroke-miterlimit="10" x1="41.0861206" y1="35.5" x2="41.0861206" y2="35.5"/><line fill="none" stroke="#000000" stroke-width="2" stroke-linecap="round" stroke-linejoin="round" stroke-miterlimit="10" x1="33.2736206" y1="33.625" x2="33.2736206" y2="33.625"/><line fill="none" stroke="#000000" stroke-width="2" stroke-linecap="round" stroke-linejoin="round" stroke-miterlimit="10" x1="39.3361206" y1="29.75" x2="39.3361206" y2="29.75"/><line fill="none" stroke="#000000" stroke-width="2" stroke-linecap="round" stroke-linejoin="round" stroke-miterlimit="10" x1="40.5236206" y1="23.3125" x2="40.5236206" y2="23.3125"/><line fill="none" stroke="#000000" stroke-width="2" stroke-linecap="round" stroke-linejoin="round" stroke-miterlimit="10" x1="44.9611206" y1="40" x2="44.9611206" y2="40"/><line fill="none" stroke="#000000" stroke-width="2" stroke-linecap="round" stroke-linejoin="round" stroke-miterlimit="10" x1="51.1486206" y1="40" x2="51.1486206" y2="40"/><line fill="none" stroke="#000000" stroke-width="2" stroke-linecap="round" stroke-linejoin="round" stroke-miterlimit="10" x1="27.7111206" y1="39.625" x2="27.7111206" y2="39.625"/></g><text x="0" y="95" fill="#000000" font-size="5px" font-weight="bold" font-family="'Helvetica Neue', Helvetica, Arial-Unicode, Arial, Sans-serif">Created by DinosoftLab</text><text x="0" y="100" fill="#000000" font-size="5px" font-weight="bold" font-family="'Helvetica Neue', Helvetica, Arial-Unicode, Arial, Sans-serif">from the Noun Project</text></svg>